<mxfile host="app.diagrams.net" agent="Mozilla/5.0 (Windows NT 10.0; Win64; x64) AppleWebKit/537.36 (KHTML, like Gecko) Chrome/131.0.0.0 Safari/537.36" version="25.0.3">
  <diagram name="Page-1" id="5-UXX4nYqJarWCje6bSy">
    <mxGraphModel dx="1674" dy="738" grid="1" gridSize="10" guides="1" tooltips="1" connect="1" arrows="1" fold="1" page="1" pageScale="1" pageWidth="850" pageHeight="1100" math="0" shadow="0">
      <root>
        <mxCell id="0" />
        <mxCell id="1" parent="0" />
        <mxCell id="rQIbr5rDbCnVi_9tGnBs-6" value="AWS Cloud" style="points=[[0,0],[0.25,0],[0.5,0],[0.75,0],[1,0],[1,0.25],[1,0.5],[1,0.75],[1,1],[0.75,1],[0.5,1],[0.25,1],[0,1],[0,0.75],[0,0.5],[0,0.25]];outlineConnect=0;gradientColor=none;html=1;whiteSpace=wrap;fontSize=12;fontStyle=0;container=1;pointerEvents=0;collapsible=0;recursiveResize=0;shape=mxgraph.aws4.group;grIcon=mxgraph.aws4.group_aws_cloud_alt;strokeColor=#232F3E;fillColor=none;verticalAlign=top;align=left;spacingLeft=30;fontColor=#232F3E;dashed=0;" vertex="1" parent="1">
          <mxGeometry x="20" y="20" width="810" height="500" as="geometry" />
        </mxCell>
        <mxCell id="rQIbr5rDbCnVi_9tGnBs-4" value="" style="outlineConnect=0;dashed=0;verticalLabelPosition=bottom;verticalAlign=top;align=center;html=1;shape=mxgraph.aws3.iam;fillColor=#759C3E;gradientColor=none;" vertex="1" parent="rQIbr5rDbCnVi_9tGnBs-6">
          <mxGeometry x="384" y="20" width="42" height="81" as="geometry" />
        </mxCell>
        <mxCell id="rQIbr5rDbCnVi_9tGnBs-24" value="" style="edgeStyle=orthogonalEdgeStyle;rounded=0;orthogonalLoop=1;jettySize=auto;html=1;" edge="1" parent="rQIbr5rDbCnVi_9tGnBs-6" source="rQIbr5rDbCnVi_9tGnBs-2">
          <mxGeometry relative="1" as="geometry">
            <mxPoint x="357" y="419" as="targetPoint" />
          </mxGeometry>
        </mxCell>
        <mxCell id="rQIbr5rDbCnVi_9tGnBs-2" value="" style="sketch=0;points=[[0,0,0],[0.25,0,0],[0.5,0,0],[0.75,0,0],[1,0,0],[0,1,0],[0.25,1,0],[0.5,1,0],[0.75,1,0],[1,1,0],[0,0.25,0],[0,0.5,0],[0,0.75,0],[1,0.25,0],[1,0.5,0],[1,0.75,0]];points=[[0,0,0],[0.25,0,0],[0.5,0,0],[0.75,0,0],[1,0,0],[0,1,0],[0.25,1,0],[0.5,1,0],[0.75,1,0],[1,1,0],[0,0.25,0],[0,0.5,0],[0,0.75,0],[1,0.25,0],[1,0.5,0],[1,0.75,0]];outlineConnect=0;fontColor=#232F3E;fillColor=#E7157B;strokeColor=#ffffff;dashed=0;verticalLabelPosition=bottom;verticalAlign=top;align=center;html=1;fontSize=12;fontStyle=0;aspect=fixed;shape=mxgraph.aws4.resourceIcon;resIcon=mxgraph.aws4.cloudwatch_2;" vertex="1" parent="rQIbr5rDbCnVi_9tGnBs-6">
          <mxGeometry x="50" y="380" width="78" height="78" as="geometry" />
        </mxCell>
        <mxCell id="rQIbr5rDbCnVi_9tGnBs-27" value="" style="edgeStyle=orthogonalEdgeStyle;rounded=0;orthogonalLoop=1;jettySize=auto;html=1;" edge="1" parent="rQIbr5rDbCnVi_9tGnBs-6" source="rQIbr5rDbCnVi_9tGnBs-25">
          <mxGeometry relative="1" as="geometry">
            <mxPoint x="670" y="416" as="targetPoint" />
          </mxGeometry>
        </mxCell>
        <mxCell id="rQIbr5rDbCnVi_9tGnBs-25" value="" style="outlineConnect=0;dashed=0;verticalLabelPosition=bottom;verticalAlign=top;align=center;html=1;shape=mxgraph.aws3.lambda_function;fillColor=#F58534;gradientColor=none;" vertex="1" parent="rQIbr5rDbCnVi_9tGnBs-6">
          <mxGeometry x="371" y="380" width="69" height="72" as="geometry" />
        </mxCell>
        <mxCell id="rQIbr5rDbCnVi_9tGnBs-29" value="" style="sketch=0;points=[[0,0,0],[0.25,0,0],[0.5,0,0],[0.75,0,0],[1,0,0],[0,1,0],[0.25,1,0],[0.5,1,0],[0.75,1,0],[1,1,0],[0,0.25,0],[0,0.5,0],[0,0.75,0],[1,0.25,0],[1,0.5,0],[1,0.75,0]];outlineConnect=0;fontColor=#232F3E;fillColor=#ED7100;strokeColor=#ffffff;dashed=0;verticalLabelPosition=bottom;verticalAlign=top;align=center;html=1;fontSize=12;fontStyle=0;aspect=fixed;shape=mxgraph.aws4.resourceIcon;resIcon=mxgraph.aws4.ec2;" vertex="1" parent="rQIbr5rDbCnVi_9tGnBs-6">
          <mxGeometry x="680" y="380" width="78" height="78" as="geometry" />
        </mxCell>
        <mxCell id="rQIbr5rDbCnVi_9tGnBs-3" value="" style="sketch=0;outlineConnect=0;fontColor=#232F3E;gradientColor=none;fillColor=#DD344C;strokeColor=none;dashed=0;verticalLabelPosition=bottom;verticalAlign=top;align=center;html=1;fontSize=12;fontStyle=0;aspect=fixed;pointerEvents=1;shape=mxgraph.aws4.role;" vertex="1" parent="rQIbr5rDbCnVi_9tGnBs-6">
          <mxGeometry x="366" y="220" width="78" height="44" as="geometry" />
        </mxCell>
        <mxCell id="rQIbr5rDbCnVi_9tGnBs-30" value="" style="edgeStyle=orthogonalEdgeStyle;rounded=0;orthogonalLoop=1;jettySize=auto;html=1;" edge="1" parent="rQIbr5rDbCnVi_9tGnBs-6" source="rQIbr5rDbCnVi_9tGnBs-4" target="rQIbr5rDbCnVi_9tGnBs-3">
          <mxGeometry relative="1" as="geometry" />
        </mxCell>
        <mxCell id="rQIbr5rDbCnVi_9tGnBs-31" value="" style="edgeStyle=orthogonalEdgeStyle;rounded=0;orthogonalLoop=1;jettySize=auto;html=1;" edge="1" parent="rQIbr5rDbCnVi_9tGnBs-6" source="rQIbr5rDbCnVi_9tGnBs-3" target="rQIbr5rDbCnVi_9tGnBs-25">
          <mxGeometry relative="1" as="geometry" />
        </mxCell>
        <UserObject label="CloudWatch" placeholders="1" name="Variable" id="rQIbr5rDbCnVi_9tGnBs-33">
          <mxCell style="text;html=1;strokeColor=none;fillColor=none;align=center;verticalAlign=middle;whiteSpace=wrap;overflow=hidden;" vertex="1" parent="rQIbr5rDbCnVi_9tGnBs-6">
            <mxGeometry x="50" y="340" width="80" height="20" as="geometry" />
          </mxCell>
        </UserObject>
        <UserObject label="IAM Role" placeholders="1" name="Variable" id="rQIbr5rDbCnVi_9tGnBs-34">
          <mxCell style="text;html=1;strokeColor=none;fillColor=none;align=center;verticalAlign=middle;whiteSpace=wrap;overflow=hidden;" vertex="1" parent="rQIbr5rDbCnVi_9tGnBs-6">
            <mxGeometry x="460" y="232" width="80" height="20" as="geometry" />
          </mxCell>
        </UserObject>
        <UserObject label="IAM" placeholders="1" name="Variable" id="rQIbr5rDbCnVi_9tGnBs-35">
          <mxCell style="text;html=1;strokeColor=none;fillColor=none;align=center;verticalAlign=middle;whiteSpace=wrap;overflow=hidden;" vertex="1" parent="rQIbr5rDbCnVi_9tGnBs-6">
            <mxGeometry x="444" y="50.5" width="80" height="20" as="geometry" />
          </mxCell>
        </UserObject>
        <UserObject label="EC2 Instances" placeholders="1" name="Variable" id="rQIbr5rDbCnVi_9tGnBs-38">
          <mxCell style="text;html=1;strokeColor=none;fillColor=none;align=center;verticalAlign=middle;whiteSpace=wrap;overflow=hidden;" vertex="1" parent="rQIbr5rDbCnVi_9tGnBs-6">
            <mxGeometry x="670" y="335" width="80" height="30" as="geometry" />
          </mxCell>
        </UserObject>
        <UserObject label="Lambda Function" placeholders="1" name="Variable" id="rQIbr5rDbCnVi_9tGnBs-39">
          <mxCell style="text;html=1;strokeColor=none;fillColor=none;align=center;verticalAlign=middle;whiteSpace=wrap;overflow=hidden;" vertex="1" parent="rQIbr5rDbCnVi_9tGnBs-6">
            <mxGeometry x="444" y="370" width="80" height="30" as="geometry" />
          </mxCell>
        </UserObject>
      </root>
    </mxGraphModel>
  </diagram>
</mxfile>
